<svg height="480pt" viewBox="0 -1 480.00261 480" width="480pt" xmlns="http://www.w3.org/2000/svg" xmlns:xlink="http://www.w3.org/1999/xlink"><linearGradient id="lg1"><stop offset="0" stop-color="#fc5c7d"/><stop offset=".129" stop-color="#f35e85"/><stop offset=".343" stop-color="#d9659b"/><stop offset=".616" stop-color="#b070bf"/><stop offset=".934" stop-color="#777ff0"/><stop offset="1" stop-color="#6a82fb"/></linearGradient><linearGradient id="linear0" gradientUnits="userSpaceOnUse" x1="8.002612" x2="8.002612" xlink:href="#lg1" y1="39.953305" y2="497.169305"/><linearGradient id="linear1" gradientUnits="userSpaceOnUse" x1="162.083938" x2="162.083938" xlink:href="#lg1" y1="39.950846" y2="497.166846"/><linearGradient id="linear2" gradientUnits="userSpaceOnUse" x1="82.082268" x2="82.082268" xlink:href="#lg1" y1="39.948555" y2="497.164555"/><linearGradient id="linear3" gradientUnits="userSpaceOnUse" x1="240.002612" x2="240.002612" xlink:href="#lg1" y1="39.953305" y2="497.169305"/><path d="m.00390625 461.65625h15.99999975v16h-15.99999975zm0 0" fill="url(#linear0)"/><path d="m94.503906 151.996094 123.839844-123.835938 11.3125 11.3125-123.839844 123.835938zm0 0" fill="url(#linear1)"/><path d="m70.503906 175.996094 11.84375-11.839844 11.3125 11.316406-11.84375 11.839844zm0 0" fill="url(#linear2)"/><path d="m464.003906 453.65625v-34.664062c.027344-16.15625-9.691406-30.738282-24.617187-36.925782l-72.59375-30.25-18.734375-74.902344 121.601562-121.601562-11.3125-11.3125-42.34375 42.34375-92.6875-92.6875 82.34375-82.34375-11.3125-11.3125-134.34375 134.34375-40.527344-40.527344 62.34375-62.34375-11.320312-11.3125-155.832031 155.839844-96 96-11.632813 11.65625c-4.757812 4.757812-7.304687 11.292969-7.0117185 18.011719.2890625 6.722656 3.3867185 13.015625 8.5390625 17.339843l169.839844 142.648438h-146.398438v16h448v-16h-17.472656c.945312-2.5625 1.445312-5.265625 1.472656-8zm-107.082031-88.613281 76.304687 31.8125c8.949219 3.710937 14.78125 12.449219 14.777344 22.136719v10.664062h-125.105468l-132.398438-110.335938c10.128906-28.40625 7.769531-59.777343-6.496094-86.351562l40-40 16.070313 16.074219c1.863281 42.804687 37.082031 76.566406 79.929687 76.613281h13.75l4 16h-49.75v16h53.75l4 16h-49.75v16h53.75l2.488282 9.945312c.613281 2.449219 2.347656 4.46875 4.679687 5.441407zm-184.710937-120.28125c9.359374 19.894531 11.207031 42.503906 5.199218 63.65625l-37.558594-31.296875zm232.480468-47.105469-72 72h-12.6875c-35.332031-.039062-63.960937-28.667969-64-64 0-2.121094-.84375-4.15625-2.34375-5.65625l-18.34375-18.34375 76.6875-76.6875zm-156-52-89.273437 89.273438c-4.683594-9.046876-7.117188-19.085938-7.09375-29.273438-.003907-2.121094-.84375-4.15625-2.34375-5.65625l-18.347657-18.34375 76.53125-76.527344zm-174.9375 162.761719-37.597656-31.3125 32.359375-32.359375c9.378906 19.894531 11.242187 42.511718 5.238281 63.671875zm-54.894531-1.65625c-1.71875-1.441407-2.75-3.539063-2.847656-5.78125-.097657-2.238281.75-4.417969 2.335937-6.003907l6.488282-6.496093 186.367187 155.320312c1.4375 1.199219 3.253906 1.859375 5.128906 1.855469h15.671875v-16h-12.761718l-132.390626-110.328125c10.132813-28.425781 7.769532-59.808594-6.503906-86.398437l40-40 16.070313 16.070312c.578125 13.265625 4.5 26.171875 11.402343 37.511719l-25.449218 25.449219-11.679688 11.695312c-4.761718 4.753906-7.304687 11.289062-7.015625 18.011719.289063 6.722656 3.382813 13.011719 8.535157 17.339843l169.824218 142.648438h-78.769531zm288.054687 154.894531-184.40625-154.894531c-1.722656-1.441407-2.753906-3.542969-2.839843-5.785157-.113281-2.242187.734375-4.421874 2.335937-6l6.496094-6.496093 186.398438 155.320312c1.433593 1.195313 3.238281 1.851563 5.105468 1.855469h128v8c0 4.417969-3.582031 8-8 8zm0 0" fill="url(#linear3)"/></svg>